<svg xmlns="http://www.w3.org/2000/svg" viewBox="0 0 24 24">
  <title>LinkedIn</title>
  <path d="M22.23 0H1.77C.792 0 0 .774 0 1.729v20.542C0 23.225.792 24 1.77 24h20.46c.978 0 1.77-.775 1.77-1.729V1.729C24 .774 23.208 0 22.23 0zM7.12 20.452H3.56V9h3.56v11.452zM5.34 7.433a2.062 2.062 0 1 1 0-4.124 2.062 2.062 0 0 1 0 4.124zM20.452 20.452h-3.555v-5.569c0-1.328-.026-3.039-1.853-3.039-1.853 0-2.136 1.446-2.136 2.939v5.669H9.354V9h3.415v1.561h.049c.475-.9 1.636-1.852 3.368-1.852 3.601 0 4.268 2.368 4.268 5.452v6.291z"/>
</svg>
